<svg xmlns="http://www.w3.org/2000/svg" width="23" height="23" viewBox="0 0 23 23">
  <g id="icon-globe" transform="translate(-1290.183 -2120.108)">
    <circle id="Ellipse_1" data-name="Ellipse 1" cx="10.5" cy="10.5" r="10.5" transform="translate(1291.183 2121.108)" fill="none" stroke="#00b2a9" stroke-miterlimit="10" stroke-width="2"/>
    <path id="Path_1" data-name="Path 1" d="M1314.8,2123.37c-2.36,1.143-4.006,1.255-4.006,2.708s2.1.59,2.1,2.1c0,2.007-1.611,2.552-2.8,1.76a2.734,2.734,0,0,0-4.182.746c-1.4,1.955-.468,4.2.536,4.178s1.918-.975,2.351.212c.359.981.54,1.2.989,1.46s.465.784.306,1.444.714,2.8,1.4,2.8,1.321-.291,1.4-1.4.927-1.17,1.323-1.488-.3-1.5.46-2.265,2.311-2.19.99-2.547-1.214-.621-1.4-1.175-.713-1.136.344-1.162a4.179,4.179,0,0,0,3.037-1.267c.872-.926,1.345-1.818,2.138-1.818" transform="translate(-9.114 -1.47)" fill="none" stroke="#00b2a9" stroke-miterlimit="10" stroke-width="2"/>
  </g>
</svg>
